<svg width="32" height="32" viewBox="0 0 32 32" fill="none" xmlns="http://www.w3.org/2000/svg">
  <rect width="32" height="32" rx="4" fill="#080808"/>
  <g fill="white">
    <path d="M4 2h3.2q1.1 0 2 0.4 0.9 0.4 1.4 1.1 0.5 0.7 0.5 1.7 0 1-0.5 1.7-0.5 0.7-1.4 1.1-0.9 0.4-2 0.4H4zm2.7 5.5q1.4 0 2.1-0.6 0.7-0.6 0.7-1.7 0-1.1-0.7-1.7-0.7-0.6-2.1-0.6H5.5v4.6zm13.6-5.5H11.1L6.5 6.5h2.7l0.6-1.1h-0.1l0.2-0.4 0.1-0.1h3.1l0.7 1.6h1.6zm-1.3 3.7-0.1 0.1h-0.1l-0.3 0.6-0.4 0.7-0.2 0.4h-1.1l0.4-0.9 0.4-0.9 1.2-2.7h0.4l1.2 2.7 0.1 0.1zm6.9 2.6q-0.8-0.3-1.2-0.8-0.4-0.5-0.4-1 1.5-0.4a0.9 0.9 0 0 0-0.1 0.1q0 0.4 0.2 0.7 0.2 0.3 0.7 0.5 0.5 0.2 1.2 0.2 0.7 0 1.2-0.2 0.4-0.2 0.4-0.6 0-0.3-0.2-0.4-0.2-0.2-0.4-0.2-0.3-0.1-0.8-0.2l-1.6-0.3q-0.9-0.2-1.4-0.7-0.5-0.5-0.5-1.1-0.1-0.5 0.3-1 0.4-0.5 1-0.7 0.6-0.2 2.1-0.2q1.1 0 1.8 0.3t1.1 0.7 0.4 0.9l-1.5 0.4q0.1-0.3-0.2-0.6-0.2-0.3-0.6-0.5-0.4-0.2-1-0.2-0.6 0-1 0.2-0.4 0.2-0.4 0.5-0.1 0.3 0.3 0.5 0.3 0.2 0.8 0.3l1.8 0.4q1.1 0.2 1.6 0.7 0.5 0.5 0.5 1.2 0 0.6-0.4 1-0.4 0.4-1.1 0.7-0.7 0.2-1.6 0.2-1.3 0-2.1-0.3M26.3 2h3q1.6 0 2.4 0.5 0.8 0.5 0.8 1.4 0 0.9-0.8 1.4-0.8 0.5-2.4 0.5h-1.6v2.8h-1.5zm3.1 2.8q0.7 0 1.2-0.2 0.4-0.2 0.4-0.7t-0.4-0.7q-0.4-0.2-1.2-0.2h-1.6v1.9zm1.6 9.4q-1.5 0-1.5-1.3v-1.7h0.6v1.7q0 0.3 0.1 0.5 0.1 0.2 0.3 0.2 0.2 0.1 0.5 0.1t0.5-0.1q0.2-0.1 0.3-0.2 0.1-0.2 0.1-0.5v-1.7h0.6v1.7q0 1.3-1.5 1.3M24.4 9.3h1.1l1.3 3h-0.7l-0.4-0.9zm1.2 1.7-0.5-1.2h-0.2l-0.5 1.2zm-7.7-1.7h2.3v0.4h-1.7v0.9h1.6v0.4h-1.6v0.9h2.4v0.4h-2.4zm-5.8 0h1.3q0.7 0 1.1 0.2 0.3 0.2 0.3 0.6 0 0.6-0.8 0.7 0.4 0.1 0.5 0.4l0.2 0.4q0.1 0.1 0.1 0.3 0.1 0.2 0.1 0.3 0.1 0.1 0.1 0.1h-0.7a0.8 0.8 0 0 1-0.1-0.2q-0.1-0.1-0.1-0.5l-0.1-0.3q-0.1-0.1-0.1-0.2-0.1-0.1-0.3-0.1-0.2 0-0.5-0.1h-0.4v1.3h-0.6zm1.4 2.6q0.3 0 0.5-0.1 0.2-0.1 0.2-0.3 0-0.2-0.2-0.3-0.2-0.1-0.5-0.1h-0.7v0.9zm-0.1-1.3q0.7 0 0.7-0.4t-0.7-0.4h-0.7v0.8zM7.6 12.2q-1.6 0-1.6-1.3v-1.7h0.7v1.7q0 0.3 0.1 0.5a0.6 0.6 0 0 0 0.3 0.2q0.2 0.1 0.5 0.1t0.5-0.1a0.5 0.5 0 0 0 0.3-0.2q0.1-0.2 0.1-0.5v-1.7h0.7v1.7q0 1.3-1.6 1.3M0 9.3h1.4q0.7 0 1.1 0.2 0.3 0.2 0.3 0.6 0 0.2-0.1 0.4-0.1 0.1-0.2 0.2a0.9 0.9 0 0 1-0.2 0.1q0.1 0 0.2 0.1 0.1 0.1 0.3 0.2 0.1 0.2 0.1 0.4 0 0.4-0.4 0.7-0.4 0.2-1.1 0.2H0zM1.5 11.8q0.3 0 0.5-0.1 0.2-0.1 0.2-0.3 0-0.2-0.2-0.3-0.2-0.1-0.5-0.1H0.7v0.9zm-0.1-1.3q0.7 0 0.7-0.4t-0.7-0.4H0.7v0.8z"/>
  </g>
</svg>