<svg xmlns="http://www.w3.org/2000/svg" version="1.1" xmlns:xlink="http://www.w3.org/1999/xlink" width="1000" height="1000"><g clip-path="url(#SvgjsClipPath1456)"><rect width="1000" height="1000" fill="#ffffff"></rect><g transform="matrix(5,0,0,5,0,0)"><svg xmlns="http://www.w3.org/2000/svg" version="1.1" xmlns:xlink="http://www.w3.org/1999/xlink" width="200" height="200"><svg width="200" height="200" viewBox="0 0 200 200" fill="none" xmlns="http://www.w3.org/2000/svg">
<path d="M39 47H63.1666C68.7029 47 73.6576 47.9928 78.0288 49.9769C82.4 51.9616 85.8346 54.7926 88.3324 58.4687C90.8303 62.1456 92.0792 66.4492 92.0792 71.3785C92.0792 76.2668 90.8303 80.5499 88.3324 84.2259C85.8346 87.9029 82.4 90.7338 78.0288 92.7176C73.6576 94.7026 68.7029 95.6945 63.1666 95.6945H39V47ZM59.2326 88.8009C66.2674 88.8009 71.5754 87.3075 75.1563 84.32C78.7362 81.3334 80.5266 77.0188 80.5266 71.3785C80.5266 65.7382 78.7255 61.4041 75.125 58.3745C71.5237 55.3458 66.2265 53.8309 59.2326 53.8309H50.1154V88.8009H59.2326Z" fill="#080808"></path>
<path d="M138.293 47.0006H118.998L96.0792 95.6953H108.008V95.6928H120.535L125.21 87.561H125.191L127.067 84.3004L127.496 83.5568L127.656 83.2806H143.589L149.222 95.6953H161.211L138.293 47.0006ZM128.476 74.5672L128.472 74.5746H127.496L124.942 79.0148L121.901 84.3004L120.026 87.561H111.698L114.689 80.9672L117.81 74.0731L127.052 53.8317H130.239L139.418 74.0731L139.642 74.5673L128.476 74.5672Z" fill="#080808"></path>
<path d="M52.6557 150.543C48.5973 148.851 45.6517 146.742 43.8204 144.213C41.9874 141.686 41.0095 139.085 40.8851 136.411L52.313 133.466C52.2703 133.716 52.2503 134.072 52.2503 134.531C52.2503 136.328 52.7906 138.051 53.8737 139.701C54.9559 141.352 56.6941 142.709 59.0882 143.775C61.4815 144.84 64.5307 145.373 68.2368 145.373C71.9411 145.373 74.845 144.862 76.9477 143.837C79.0495 142.814 80.1013 141.383 80.1013 139.544C80.1013 138.125 79.7159 137.017 78.946 136.223C78.1752 135.43 77.1139 134.813 75.7611 134.374C74.4083 133.935 72.3578 133.424 69.6104 132.839L57.2457 130.207C52.5827 129.204 48.9819 127.565 46.4425 125.287C43.903 123.01 42.6338 120.326 42.6338 117.234C42.6338 114.602 43.4654 112.189 45.1314 109.995C46.7957 107.802 49.3151 106.038 52.6871 104.7C56.059 103.363 60.1809 102.694 65.0518 102.694C70.3804 102.694 74.8659 103.426 78.5093 104.888C82.151 106.351 84.8679 108.178 86.6582 110.372C88.4477 112.565 89.4265 114.79 89.5926 117.046L78.1657 120.179C78.2483 118.634 77.8316 117.119 76.9164 115.636C76.0003 114.153 74.5127 112.91 72.4517 111.907C70.3908 110.904 67.7783 110.403 64.6151 110.403C61.3675 110.403 58.8072 110.936 56.9333 112.001C55.0603 113.066 54.1234 114.414 54.1234 116.043C54.1234 117.506 54.862 118.686 56.3409 119.584C57.8181 120.483 59.9312 121.204 62.6786 121.746L76.0421 124.441C81.662 125.569 85.6482 127.345 88.0006 129.768C90.3521 132.191 91.5292 135.157 91.5292 138.667C91.5292 141.717 90.5296 144.329 88.5313 146.501C86.533 148.674 83.7856 150.314 80.2884 151.42C76.7911 152.527 72.8363 153.081 68.4238 153.081C61.9704 153.081 56.715 152.235 52.6557 150.543Z" fill="#080808"></path>
<path d="M105.509 103.695H128.365C136.608 103.695 142.685 104.845 146.599 107.142C150.511 109.44 152.469 112.929 152.469 117.608C152.469 122.288 150.511 125.777 146.599 128.074C142.685 130.372 136.608 131.521 128.365 131.521H116.625V152.39H105.509V103.695ZM128.989 124.69C132.736 124.69 135.66 124.116 137.763 122.966C139.865 121.818 140.917 120.032 140.917 117.608C140.917 115.186 139.865 113.399 137.763 112.25C135.66 111.101 132.736 110.526 128.989 110.526H116.625V124.69H128.989Z" fill="#080808"></path>
</svg></svg></g></g><defs><clipPath id="SvgjsClipPath1456"><rect width="1000" height="1000" x="0" y="0" rx="500" ry="500"></rect></clipPath></defs></svg>